<svg xmlns="http://www.w3.org/2000/svg" xml:space="preserve" width="960" height="960" viewBox="0 0 254 254"><path d="M95.404 148.217c-5.598-.58-10.464-2.465-14.798-5.733-4.617-3.482-8.057-8.21-9.781-13.444-.873-2.649-1.078-3.855-1.143-6.704-.072-3.145.129-4.88.854-7.383 2.006-6.923 6.467-12.617 12.962-16.546 3.485-2.109 7.507-3.516 11.79-4.125 1.342-.191 4.716-.218 6.693-.055 6.22.516 12.63 3.443 17.179 7.845a26.52 26.52 0 0 1 7.764 15.143c.259 1.773.253 5.737-.01 7.357-1.244 7.657-5.255 13.97-11.688 18.395-3.757 2.585-7.482 4.119-12.09 4.978-1.097.205-1.872.256-4.302.285-1.63.02-3.174.014-3.43-.013zm5.754-8.592c3.817-.543 7.486-2.233 10.737-4.947 3.39-2.83 5.691-7.05 6.246-11.455.176-1.403.076-4.542-.184-5.743-1.224-5.655-5.11-10.507-10.419-13.011-1.416-.668-3.396-1.294-4.984-1.576-1.501-.266-5.005-.366-6.455-.183-2.435.306-5.134 1.136-7.3 2.242-4.603 2.352-7.636 5.87-9.254 10.734-.674 2.025-.866 3.245-.867 5.515 0 2.26.203 3.593.854 5.583.976 2.978 2.396 5.194 4.847 7.56 2.64 2.548 6.034 4.307 9.74 5.049 1.807.362 1.885.37 4.017.389 1.068.01 2.3-.055 3.022-.157m56.038 8.47c-1.875-.19-4.884-.903-6.82-1.617-.629-.232-1.928-.804-2.887-1.272-6.23-3.039-11.211-8.304-13.637-14.414-2.653-6.685-2.158-14.228 1.377-20.964 1.423-2.713 2.886-4.643 5.312-7.014 4.646-4.54 10.06-7.193 16.713-8.189 1.66-.248 7.083-.175 8.72.117 5.523.988 10.357 3.219 14.3 6.601 5.05 4.332 8.455 10.433 9.41 16.859.205 1.389.258 6.883.068 7.184-.098.154-2.942.18-24.18.215-23.198.04-24.07.05-24.07.253 0 .383.849 2.59 1.458 3.79 1.464 2.885 3.904 5.511 6.74 7.256 3.727 2.292 8.559 3.374 12.936 2.895 5.062-.553 9.364-2.596 13.453-6.386 1.278-1.185 1.278-1.185 6.199-1.128 2.706.032 4.948.086 4.982.12.134.135-1.276 2.381-2.566 4.088-.962 1.273-3.602 3.956-5.011 5.092-4.108 3.312-9.475 5.65-14.722 6.412-.903.132-2.062.175-4.302.161-1.686-.01-3.249-.037-3.473-.06m23.601-31.143c0-.274-.792-2.334-1.25-3.25-1.48-2.965-4.022-5.787-6.888-7.648-3.246-2.107-6.722-3.184-11.025-3.414-3.13-.168-7.04.685-10.192 2.223-2.11 1.03-3.301 1.892-5.128 3.715-1.8 1.796-2.652 2.966-3.64 5.002-.448.925-1.289 3.204-1.289 3.495 0 .031 8.868.057 19.706.057 17.687 0 19.706-.019 19.706-.18M194.981 143c0-4.01 0-4.01.32-4.016 2.507-.044 5.546-.245 6.124-.404 2.066-.57 4.122-2.159 5.55-4.29 1.63-2.435 2.457-4.567 5.21-13.437 3.184-10.262 4.315-13.138 6.403-16.281 1.267-1.906 3.779-4.459 5.517-5.608 2.238-1.478 4.947-2.585 7.757-3.168 1.165-.241 2-.319 4.565-.422 1.947-.078 3.691-.088 4.593-.025 1.453.101 1.453.101 1.54.799.048.383.056 2.037.016 3.674-.072 2.977-.072 2.977-1.366 3.051-.712.041-1.924.075-2.693.075-4.32.002-7.762 1.286-10.286 3.837-2.473 2.499-3.762 5.434-6.742 15.347-2.951 9.816-4.34 13.327-6.651 16.815-1.195 1.804-2.861 3.612-4.392 4.767-1.093.824-3.53 2.086-4.886 2.531-2.034.668-2.925.766-6.906.766-3.673 0-3.673 0-3.673-4.01M7.435 146.808c-.75-.029-1.046-.087-1.162-.227-.13-.155-.162-4.427-.192-24.796-.035-24.608-.035-24.608.484-25.087.297-.274.727-.534 1.004-.609.319-.086 1.525-.118 3.527-.093 3.846.048 3.925.072 5.488 1.649.577.583 4.362 4.92 8.41 9.64s7.969 9.265 8.713 10.1c1.352 1.52 1.352 1.52 1.937.89.321-.345 3.775-4.288 7.675-8.762 8.225-9.435 10.552-12.063 11.131-12.57.23-.2.724-.488 1.097-.637.643-.258.842-.274 3.838-.31 3.015-.035 3.186-.026 3.738.212.318.136.7.38.85.539.274.29.274.29.304 24.962.027 21.282.008 24.703-.136 24.9-.16.219-.33.227-4.715.225-3.577-.002-4.569-.034-4.641-.151-.177-.286-.246-6.199-.246-21.083 0-8.282-.045-14.979-.1-14.979-.138 0-2.173 2.03-3.756 3.75-1.876 2.036-9.923 11.372-14.124 16.387-.912 1.089-1.346 1.307-1.984.999-.172-.083-1.563-1.59-3.091-3.348-1.528-1.759-4.755-5.473-7.17-8.255a1196 1196 0 0 0-6.353-7.266c-1.962-2.209-1.962-2.209-2.023 15.637-.033 9.815-.101 17.93-.15 18.032-.073.148-.375.201-1.499.261-1.364.074-4.8.068-6.854-.01" style="fill:#000"/></svg>